<svg id="Layer_1" data-name="Layer 1" xmlns="http://www.w3.org/2000/svg" viewBox="0 0 70.29 442.93"><defs><style>.cls-1{fill:#231f20;}</style></defs><title>Learn</title><path class="cls-1" d="M75.42,92.45H30.75v-70c8.76,0,15-.21,17.32-0.36v55.4h28C76.53,82.3,75.67,87.46,75.42,92.45Z" transform="translate(-15.63 -22.08)"/><path class="cls-1" d="M75,185.33H29.41v-70H74c0.39,4.48-.41,9.29-0.65,13.94H46.73V144.1H69c0.33,3.72-.34,7.72-0.54,11.58H46.73v15.46H75.64C76,175.7,75.23,180.6,75,185.33Z" transform="translate(-15.63 -22.08)"/><path class="cls-1" d="M61.64,261.86H37.4l-5.72,16.85-16-.44,27.11-70a114,114,0,0,0,15.39-.86l27.79,70.86-18.66,1.09ZM58.15,251l-8.3-25.83L41.08,251H58.15Z" transform="translate(-15.63 -22.08)"/><path class="cls-1" d="M47.91,343.74a71.3,71.3,0,0,1-7.65-.49v28a84.12,84.12,0,0,1-17.32.31V302.94a112.78,112.78,0,0,1,23.18-2.4c21.17,0,33,6.28,33,19.49,0,9.08-5.51,16.74-15.27,20.18l21.94,31.06-21.37,1.09Zm-8.15-12.07a33,33,0,0,0,7.08.78c9.38,0,15-3.95,15-10.24,0-6.11-5.34-8.33-13.81-8.33a55,55,0,0,0-8.27.63v17.15Z" transform="translate(-15.63 -22.08)"/><path class="cls-1" d="M82.72,394.11v70.34l-11.9.47L35.61,420.78v43.67a70.38,70.38,0,0,1-15,.29V394.43c5.21,0,9.77-.16,12.46-0.42l34.65,42.89V411.3h0V394.43C75.33,394.43,80.75,394.25,82.72,394.11Z" transform="translate(-15.63 -22.08)"/></svg>